<?xml version="1.0" encoding="utf-8"?>
<!-- Generator: Adobe Illustrator 26.5.0, SVG Export Plug-In . SVG Version: 6.00 Build 0)  -->
<svg version="1.1" id="Layer_1" xmlns="http://www.w3.org/2000/svg" xmlns:xlink="http://www.w3.org/1999/xlink" x="0px" y="0px"
	 viewBox="0 0 945.8 770.3" style="enable-background:new 0 0 945.8 770.3;" xml:space="preserve">
<style type="text/css">
	.st0{fill:url(#SVGID_1_);}
	.st1{fill:#878300;}
	.st2{fill:#522324;}
	.st3{fill:none;stroke:#522324;stroke-width:2;stroke-miterlimit:10;}
</style>
<g>
	<g>
		<linearGradient id="SVGID_1_" gradientUnits="userSpaceOnUse" x1="281.4292" y1="370.8517" x2="839.3427" y2="-6.7753">
			<stop  offset="0" style="stop-color:#522324"/>
			<stop  offset="0.6227" style="stop-color:#878300"/>
			<stop  offset="1" style="stop-color:#D9E053"/>
		</linearGradient>
		<path class="st0" d="M741.5,83.8C746.3,38.4,711.2,9,677.1,5c-69.4-8.2-116.3,94.2-149.2,156.8L544.6,1.9
			c-29.8,0-42.6,21.4-57.1,40.4c-16.1,21.1-38.3,52.4-62.2,86.6c-5.7-6.2-11.6-11.8-17.8-16.5c-35.9-27.4-77-32-110.1-12.3
			c-30.6,18.2-47.9,53.4-43.2,87.5c5,36.2,32.8,64.1,76.9,77.7c-8.7,12.6-16.7,24-23.5,33.6c-10.9,15.3-20.2,24.2-31,29.4
			c-0.1-1-0.2-2-0.3-2.9c0-0.1,0-0.1,0-0.2c-0.1-0.9-0.3-1.8-0.6-2.7c0-0.1-0.1-0.2-0.1-0.4c-0.2-0.8-0.5-1.6-0.8-2.4
			c-0.1-0.2-0.1-0.3-0.2-0.5c-0.3-0.8-0.6-1.5-0.9-2.2c-0.1-0.2-0.2-0.4-0.3-0.6c-0.3-0.7-0.7-1.4-1.1-2c-0.1-0.2-0.3-0.4-0.4-0.6
			c-0.4-0.6-0.8-1.2-1.2-1.8c-0.2-0.2-0.3-0.5-0.5-0.7c-0.4-0.5-0.8-1.1-1.3-1.6c-0.2-0.3-0.4-0.5-0.7-0.7c-0.4-0.5-0.9-0.9-1.3-1.4
			c-0.3-0.3-0.5-0.5-0.8-0.8c-0.5-0.4-0.9-0.8-1.4-1.2c-0.3-0.3-0.6-0.5-1-0.7c-0.5-0.3-0.9-0.7-1.4-1c-0.4-0.2-0.8-0.5-1.1-0.7
			c-0.5-0.3-0.9-0.6-1.4-0.8c-0.4-0.2-0.9-0.4-1.3-0.6c-0.5-0.2-0.9-0.4-1.4-0.6c-0.5-0.2-1-0.4-1.5-0.6c-0.5-0.2-0.9-0.3-1.4-0.5
			c-0.6-0.2-1.1-0.3-1.7-0.4c-0.4-0.1-0.9-0.2-1.3-0.3c-0.7-0.1-1.4-0.2-2-0.3c-0.4,0-0.7-0.1-1.1-0.2c-1.1-0.1-2.1-0.2-3.2-0.2
			c-1.1,0-2.2,0.1-3.3,0.2c-0.4,0-0.7,0.1-1.1,0.2c-0.7,0.1-1.4,0.2-2.2,0.3c-0.4,0.1-0.8,0.2-1.2,0.3c-0.6,0.2-1.3,0.3-1.9,0.5
			c-0.4,0.1-0.9,0.3-1.3,0.5c-0.6,0.2-1.1,0.4-1.7,0.6c-0.4,0.2-0.9,0.4-1.3,0.6c-0.5,0.3-1.1,0.5-1.6,0.8c-0.4,0.2-0.8,0.5-1.2,0.8
			c-0.5,0.3-1,0.6-1.5,0.9c-0.4,0.3-0.8,0.6-1.2,0.9c-0.5,0.3-0.9,0.7-1.3,1c-0.4,0.3-0.7,0.7-1.1,1c-0.4,0.4-0.8,0.7-1.2,1.1
			c-0.3,0.3-0.7,0.7-1,1.1c-0.4,0.4-0.8,0.8-1.1,1.2c-0.3,0.4-0.6,0.8-0.9,1.2c-0.3,0.4-0.7,0.9-1,1.3c-0.3,0.4-0.5,0.8-0.8,1.3
			c-0.3,0.5-0.6,0.9-0.9,1.4c-0.2,0.4-0.5,0.9-0.7,1.4c-0.2,0.5-0.5,1-0.7,1.5c-0.2,0.5-0.4,1-0.5,1.4c-0.2,0.5-0.4,1-0.6,1.6
			c-0.2,0.5-0.3,1-0.4,1.5c-0.1,0.5-0.3,1.1-0.4,1.6c-0.1,0.5-0.2,1-0.3,1.6c-0.1,0.6-0.2,1.1-0.3,1.7c-0.1,0.5-0.1,1.1-0.1,1.6
			c0,0.5-0.1,0.9-0.1,1.4c0,0.1,0,0.2,0,0.3c0,0.1,0,0.2,0,0.3c0,0.1,0,0.1,0,0.2c0.1,8.5,3.3,16.1,8.7,21.8
			c0.1,0.1,0.2,0.2,0.3,0.3c0,0,0.1,0.1,0.1,0.1c14.1,15.5,38.4,13.5,38.4,13.5c3.4,0,6.9-0.2,10.5-0.8c25.8-3.9,48.9-28.2,67-53.4
			c7.7-10.7,17.3-25.4,28.1-42.3c38.6,0.5,85-16.1,118.7-36l-10.3,86c-3.8,24.6-21.1,29.6-21.1,29.6l-2.1,16.9l17.2,0l0,0H506l0,0
			l19.4,0l1.9-16.3c0,0-18.6-4.4-15.7-33.3l0,0L524,199.6c5.1-7.7,11.3-17.1,15.8-24.1C566.9,132.8,621,41.2,669.3,52.5
			c72.6,17.1,0.6,110.7-69.8,156.2c-3.1,2,11.8,8.4,11.8,8.4s86.7-7.4,82.7,55.3c-2.2,34.1-26.2,53.8-54.4,58.7
			c-30,5.2-72.3-1.3-109.2-59l-5.1-0.1c17.7,60.8,59.3,91.3,97,94.9c35.2,3.4,108.4-8.8,111.9-89.2c3.3-75.8-79.9-85.8-79.9-85.8
			S734.8,147.1,741.5,83.8z M350.8,234.3c-49.5-11.8-56.6-37.5-58.6-51.9c-2.7-20,8-41.5,26.1-52.2c0,0,30.3-24.9,76.1,4.8
			c5.4,3.5,11.2,8.1,17.3,13.5c-20.1,29-40.7,59-59.5,86.2C351.8,234.5,351.3,234.4,350.8,234.3z M385.9,238
			c14.1-22.6,29.3-47.1,44.5-71.3c15.9,17,31,36.3,39.4,50.6C446.6,231.5,414.5,238,385.9,238z M480.7,211.1
			c-10.1-16.9-23.3-40.7-39.1-62.3c23.4-36.9,46.1-71.6,64-95.4l-18.1,150.7C485.3,206.8,483,209.2,480.7,211.1z"/>
	</g>
	<g>
		<g>
			<path class="st1" d="M17.1,610.3H1.4v-8h40.6v8H26.2v43.3h-9.1V610.3z"/>
			<path class="st1" d="M65.2,602.4h34v8H74.3v13h23.6v7.7H74.3v14.5h26.2v8.1H65.2V602.4z"/>
			<path class="st1" d="M163.8,614.4c-1.4-1.8-3.1-3.2-5.3-4s-4.3-1.3-6.4-1.3c-2.7,0-5.1,0.5-7.2,1.4c-2.2,1-4,2.3-5.6,4
				s-2.8,3.7-3.6,5.9c-0.8,2.3-1.3,4.7-1.3,7.4c0,2.8,0.4,5.4,1.2,7.7c0.8,2.3,2,4.3,3.5,6c1.5,1.7,3.3,3,5.5,3.9
				c2.1,0.9,4.5,1.4,7.2,1.4c2.8,0,5.2-0.5,7.3-1.6c2.1-1.1,3.8-2.5,5.1-4.3l7.3,5.1c-2.3,2.9-5.1,5.1-8.3,6.6
				c-3.3,1.6-7.1,2.4-11.5,2.4c-4,0-7.7-0.7-11.1-2c-3.4-1.3-6.2-3.2-8.7-5.6c-2.4-2.4-4.3-5.2-5.7-8.6c-1.4-3.3-2-7-2-11
				c0-4.1,0.7-7.8,2.1-11.1c1.4-3.3,3.4-6.1,5.9-8.4c2.5-2.3,5.4-4.1,8.8-5.4c3.4-1.3,7.1-1.9,11-1.9c1.6,0,3.4,0.2,5.1,0.5
				c1.8,0.3,3.5,0.8,5.1,1.4c1.6,0.7,3.2,1.5,4.6,2.4c1.4,1,2.7,2.1,3.7,3.5L163.8,614.4z"/>
			<path class="st1" d="M194.5,602.4h9.1v20.7h24v-20.7h9.1v51.3h-9.1v-22.8h-24v22.8h-9.1V602.4z"/>
			<path class="st1" d="M265.4,602.4h12.1l23.8,38.4h0.1v-38.4h9.1v51.3h-11.6L274.7,614h-0.1v39.7h-9.1V602.4z"/>
			<path class="st1" d="M339.3,602.4h9.1v51.3h-9.1V602.4z"/>
			<path class="st1" d="M414.1,614.4c-1.4-1.8-3.1-3.2-5.3-4s-4.3-1.3-6.4-1.3c-2.7,0-5.1,0.5-7.2,1.4c-2.2,1-4,2.3-5.6,4
				s-2.8,3.7-3.6,5.9c-0.8,2.3-1.3,4.7-1.3,7.4c0,2.8,0.4,5.4,1.2,7.7c0.8,2.3,2,4.3,3.5,6c1.5,1.7,3.3,3,5.5,3.9
				c2.1,0.9,4.5,1.4,7.2,1.4c2.8,0,5.2-0.5,7.3-1.6c2.1-1.1,3.8-2.5,5.1-4.3l7.3,5.1c-2.3,2.9-5.1,5.1-8.3,6.6
				c-3.3,1.6-7.1,2.4-11.5,2.4c-4,0-7.7-0.7-11.1-2c-3.4-1.3-6.2-3.2-8.7-5.6c-2.4-2.4-4.3-5.2-5.7-8.6c-1.4-3.3-2-7-2-11
				c0-4.1,0.7-7.8,2.1-11.1c1.4-3.3,3.4-6.1,5.9-8.4c2.5-2.3,5.4-4.1,8.8-5.4c3.4-1.3,7.1-1.9,11-1.9c1.6,0,3.4,0.2,5.1,0.5
				c1.8,0.3,3.5,0.8,5.1,1.4c1.6,0.7,3.2,1.5,4.6,2.4c1.4,1,2.7,2.1,3.7,3.5L414.1,614.4z"/>
			<path class="st1" d="M460.1,602.4h7.9l22.1,51.3h-10.4l-4.8-11.7h-22.3l-4.6,11.7h-10.2L460.1,602.4z M471.7,634.1l-7.9-20.9
				l-8,20.9H471.7z"/>
			<path class="st1" d="M512.5,602.4h9.1v43.2h21.8v8.1h-31V602.4z"/>
			<path class="st1" d="M595.3,602.4h10l9.9,37.7h0.1l11.3-37.7h9.4l11.1,37.7h0.1l10.1-37.7h9.7l-15,51.3h-8.8l-12-38.5h-0.1
				l-12,38.5h-8.8L595.3,602.4z"/>
			<path class="st1" d="M687.3,627.9c0-4.1,0.7-7.8,2.1-11.1c1.4-3.3,3.3-6.1,5.7-8.4c2.4-2.3,5.3-4.1,8.7-5.4c3.4-1.3,7-1.9,11-1.9
				c4,0,7.7,0.6,11.1,1.9c3.4,1.3,6.3,3,8.8,5.4c2.5,2.3,4.4,5.1,5.8,8.4s2.1,7,2.1,11.1c0,4-0.7,7.7-2.1,11
				c-1.4,3.3-3.3,6.2-5.8,8.6s-5.4,4.3-8.8,5.6c-3.4,1.3-7.1,2-11.1,2c-4,0-7.6-0.7-11-2c-3.4-1.3-6.3-3.2-8.7-5.6s-4.3-5.2-5.7-8.6
				C688,635.5,687.3,631.9,687.3,627.9z M697.2,627.9c0,2.8,0.4,5.3,1.3,7.6c0.8,2.3,2.1,4.3,3.6,6s3.4,3,5.6,4
				c2.1,0.9,4.5,1.4,7.1,1.4c2.6,0,5-0.5,7.2-1.4c2.2-0.9,4-2.3,5.6-4c1.6-1.7,2.8-3.7,3.6-6c0.8-2.3,1.3-4.8,1.3-7.6
				c0-2.7-0.4-5.1-1.3-7.4c-0.8-2.3-2-4.3-3.6-5.9c-1.5-1.7-3.4-3-5.6-4c-2.2-1-4.6-1.4-7.2-1.4c-2.7,0-5.1,0.5-7.2,1.4
				c-2.2,1-4,2.3-5.5,4c-1.5,1.7-2.7,3.7-3.6,5.9C697.7,622.8,697.2,625.2,697.2,627.9z"/>
			<path class="st1" d="M768.6,602.4h17.8c2.4,0,4.8,0.3,7,0.8c2.3,0.5,4.3,1.3,6.1,2.5c1.8,1.2,3.2,2.7,4.2,4.6
				c1.1,1.9,1.6,4.2,1.6,6.9c0,3.7-1.1,6.8-3.2,9.1c-2.1,2.3-5,3.9-8.6,4.7l13.7,22.8h-11l-11.9-21.7h-6.7v21.7h-9.1V602.4z
				 M785.2,624.5c1.3,0,2.6-0.1,3.9-0.3s2.5-0.6,3.5-1.1c1-0.5,1.9-1.3,2.6-2.3s1-2.3,1-3.8c0-1.4-0.3-2.5-0.9-3.4
				c-0.6-0.9-1.4-1.6-2.4-2.1c-1-0.5-2.1-0.9-3.3-1.1c-1.2-0.2-2.4-0.3-3.6-0.3h-8.3v14.4H785.2z"/>
			<path class="st1" d="M831.6,602.4h9.1v22.2h0.2l21.5-22.2h12.3l-24,23.7l25.6,27.6h-12.8l-22.5-25.7h-0.2v25.7h-9.1V602.4z"/>
			<path class="st1" d="M925,613.1c-1-1.3-2.3-2.3-4.1-3.2c-1.8-0.8-3.5-1.3-5.3-1.3c-1.1,0-2.1,0.1-3.2,0.4c-1.1,0.3-2,0.7-2.9,1.2
				c-0.9,0.6-1.6,1.3-2.1,2.2s-0.8,2-0.8,3.2c0,1.2,0.2,2.2,0.7,3c0.5,0.8,1.1,1.5,2,2.1c0.8,0.6,1.9,1.1,3.1,1.5
				c1.2,0.4,2.5,0.9,4,1.3c1.6,0.5,3.3,1.1,5.1,1.8c1.8,0.7,3.4,1.6,4.9,2.7c1.5,1.1,2.7,2.5,3.6,4.2s1.4,3.8,1.4,6.3
				c0,2.8-0.5,5.2-1.5,7.2c-1,2.1-2.4,3.8-4.1,5.1c-1.7,1.4-3.7,2.4-5.9,3c-2.3,0.7-4.7,1-7.2,1c-3.3,0-6.6-0.6-9.8-1.8
				s-5.8-3.1-7.8-5.5l6.5-6.1c1.3,1.7,2.9,3.1,5,4.1c2.1,1,4.2,1.5,6.2,1.5c1.1,0,2.2-0.1,3.3-0.4c1.1-0.3,2.1-0.7,3-1.3
				c0.9-0.6,1.6-1.4,2.2-2.4c0.6-0.9,0.8-2.1,0.8-3.5c0-1.4-0.3-2.5-0.9-3.4c-0.6-0.9-1.5-1.7-2.5-2.3c-1.1-0.7-2.3-1.2-3.8-1.7
				c-1.5-0.5-3-1-4.6-1.5c-1.5-0.5-3.1-1.1-4.6-1.7c-1.5-0.7-2.9-1.6-4.2-2.7c-1.2-1.1-2.2-2.5-3-4.1c-0.8-1.6-1.2-3.6-1.2-6.1
				c0-2.6,0.5-4.9,1.6-6.7c1.1-1.9,2.5-3.4,4.3-4.7c1.8-1.2,3.8-2.2,6-2.8c2.2-0.6,4.5-0.9,6.9-0.9c2.6,0,5.3,0.5,7.9,1.4
				c2.7,0.9,5,2.3,7,4.1L925,613.1z"/>
		</g>
		<g>
			<path class="st2" d="M26.6,528.2c-6.5,11.1-12.1,21.7-16.5,31.2c-0.9,1.9-2.8,1.9-3.9,0.4c-2.6-3.5-3.5-10,1.1-22.1
				c1.3-3.3,3.3-7.6,5.9-12.4c-4.8-2.6-6.5-5.9-7.2-7.4c-1.1-2.8-0.6-3.7,2.6-3.2c3,0.4,6.3,0.9,9.8,1.1c16.9-29.5,47-72.4,70-91.2
				c3.5-2.8,5.6-2.8,7.8,0.2c2.2,3,2.8,3.5,5,8.9c2.2,5.2,2,10,0,15.8c-5.6,17.1-11.7,39.2-15.8,63.1c6.5,2.2,8.9,6.5,9.8,11.1
				c0.4,2-0.4,2.6-2.4,2c-2.6-0.7-5.6-1.1-9.3-1.3c-1.5,11.3-2.8,23.2-3.2,34.7c0,2.2-1.3,2.8-3.3,1.9c-4.3-1.9-7.8-7.4-8-19.7
				c0-4.3,0.2-10,0.9-16.5C54.3,525.8,36.8,528.4,26.6,528.2z M71.4,511.5c3.3-22.5,9.3-49.8,16-66.8
				c-16.5,18.4-36.2,44.6-52.7,70.4C48,514.1,61.3,511.7,71.4,511.5z"/>
			<path class="st2" d="M129.1,561.2c-11.5,0-18.9-5.9-22.8-15.4c-2,4.6-4.3,9.8-6.3,14.3c-0.9,2.2-2.2,2.4-3.5,0.6
				c-3.3-4.3-5.4-10.6-1.1-23.8c5.9-18,48.3-98.2,63.3-119c2-2.8,3.7-2.8,5.4,0.2c3.3,6.1,3.3,15.8-5.6,32.1
				c-3.3,6.1-12.6,21-19.3,32.9c6.3-5.6,13-9.1,18.6-9.1c18.4,0,19.3,25.6,7.4,52C155.1,548.8,141.7,561.2,129.1,561.2z
				 M138.9,491.6c-9.8,10.2-20.2,28.2-28.2,44.9c0.4,6.3,3.3,13.2,9.1,14.5c7.6,1.7,17.6-4.8,30.1-29.9c12.4-24.5,9.8-37.7,4.8-38.1
				C150.1,482.5,145.4,484.9,138.9,491.6z"/>
			<path class="st2" d="M203.7,556c18,0.9,33.8-16.5,43.1-30.8c1.1-1.7,2.8-1.7,3.7,0.2c0.9,1.7,0.2,7.8-3.7,13.4
				c-9.1,13.2-25.8,23.2-42.5,23.4c-27.5,0.4-37.1-26.7-23-54.6s36.2-39.2,47-32.9c5.4,3.2,9.3,6.5,12.8,11.3
				c3.9,5.2,2.2,18.4-6.9,29.5c-10.6,13-25.1,18.6-40.3,6.3C187,541.7,192.2,555.3,203.7,556z M221.6,506.1
				c6.9-9.1,11.7-20.4,8.7-22.8c-4.6-3.7-22.5,9.3-32.7,29.9c-0.7,1.3-1.3,2.6-1.7,3.7C206.5,523.7,215.4,514.3,221.6,506.1z"/>
			<path class="st2" d="M357.5,562c-16.5-0.9-23-15.6-17.6-33.2c4.6-14.5,17.6-30.6,26.9-41c-9.5,6.1-19.3,8.2-26,8.2
				c-18,37.7-41.4,65-67.2,65.4c-27.5,0.4-36.8-26.4-22.8-54.2c13.7-26.9,35.8-39,46.6-32.7c5.4,3.2,9.3,6.3,12.8,11.1
				c3.7,5.2,1.5,18-7.2,29c-10.2,13.2-24.7,18.6-39.9,6.5c-6.9,19.7-1.5,33.8,9.5,34.2c23.8,1.1,47.7-33.2,59.6-60.7
				c-16.7-6.9,4.6-35.8,13.7-36.2c6.7-0.2,4.6,13-0.9,27.1c7.6-1.1,15.2-4.6,23.6-10.2c2.6-1.7,4.6-2.8,6.1-0.7
				c4.3,4.8,9.8,15.2,3.3,22.3c-10.2,11.3-21.2,26-24.9,37.7c-3.7,11.9-1.1,20.6,5.4,20.8c9.1,0.4,20.2-13.9,27.1-29.9
				c0.9-1.7,2.4-2.2,3.3-0.2c1.1,2.4,1.5,8-1.1,14.1C382.5,552.7,369.4,562.7,357.5,562z M290.8,505.9c6.9-8.9,11.5-20.2,8.7-22.5
				c-4.8-4.1-22.5,9.5-32.5,29.5c-0.7,1.1-1.1,2.6-1.7,3.7C275.8,523,284.3,514.1,290.8,505.9z"/>
			<path class="st2" d="M455.5,528.2c-6.5,11.1-12.1,21.7-16.5,31.2c-0.9,1.9-2.8,1.9-3.9,0.4c-2.6-3.5-3.5-10,1.1-22.1
				c1.3-3.3,3.3-7.6,5.9-12.4c-4.8-2.6-6.5-5.9-7.2-7.4c-1.1-2.8-0.7-3.7,2.6-3.2c3,0.4,6.3,0.9,9.8,1.1c16.9-29.5,47-72.4,70-91.2
				c3.5-2.8,5.6-2.8,7.8,0.2c2.2,3,2.8,3.5,5,8.9c2.2,5.2,2,10,0,15.8c-5.6,17.1-11.7,39.2-15.8,63.1c6.5,2.2,8.9,6.5,9.8,11.1
				c0.4,2-0.4,2.6-2.4,2c-2.6-0.7-5.6-1.1-9.3-1.3c-1.5,11.3-2.8,23.2-3.3,34.7c0,2.2-1.3,2.8-3.3,1.9c-4.3-1.9-7.8-7.4-8-19.7
				c0-4.3,0.2-10,0.9-16.5C483.2,525.8,465.7,528.4,455.5,528.2z M500.4,511.5c3.3-22.5,9.3-49.8,16-66.8
				c-16.5,18.4-36.2,44.6-52.7,70.4C476.9,514.1,490.2,511.7,500.4,511.5z"/>
			<path class="st2" d="M546.5,555.5c10.4,0.9,25.6-14.7,34-31.4c1.5-2.8,3.9-3,4.8,0c1.1,3.5,0.2,8.2-2.2,13.4
				c-3,6.5-18.9,24.5-36.2,24.1c-15-0.4-23-10.8-18-34.2c8-37.7,32.7-76.9,54.8-99.9c3.3-3.5,6.3-3.9,9.3-1.1
				c6.3,5.6,7.6,13.7,5,23.8c-6.7,26.7-31,52.7-50.3,65.2C539.1,536.7,536.8,554.7,546.5,555.5z M590.7,445.6
				c-2.8-1.7-18.9,22.3-33.8,50.1c-2,3.5-3.7,6.9-5.2,10.4C581.4,482.1,593.5,447.4,590.7,445.6z"/>
			<path class="st2" d="M654.4,475.1c2-2.8,3.7-3.3,5.2-1.3c3.3,3.9,5,13.2-0.2,24.1c-4.8,9.8-15.6,26-20.8,37.5
				c-5.4,12.1-5.6,21.5,1.7,21c8.9-0.4,20.8-15.2,28.4-30.1c1.1-2,2.6-2.2,3.5-0.2c0.9,1.9,0.9,7.4-2,13.4
				c-5.6,11.9-19.3,23.8-31.2,23.2c-11.7-0.7-17.8-7.6-17.8-17.8c-6.9,8.9-16.7,16.9-27.1,16.9c-20.2,0-24.3-27.5-6.3-53.7
				c17.6-25.6,34.7-35.3,45.5-35.3c9.3,0,13.7,7.2,13.2,15.6C649.5,483.1,652.1,478.6,654.4,475.1z M637.1,484
				c-6.9-0.7-22.8,13.4-34.7,32.7c-11.5,18.6-14.3,37.7-5.9,37.9c8.9,0.2,20.2-13.7,31.2-32.7C641.4,498.1,643.4,484.7,637.1,484z"
				/>
			<path class="st2" d="M732.5,473.6c7.4,0.2,11.3,11.7,8.5,21.2c10.4-10.2,24.9-20.4,32.1-20.2c7.8,0.2,9.5,13,5.2,23.8
				c-3.9,9.8-14.5,24.1-19.9,34.9c-6.1,12.4-3,22.3,4.8,22.1c8.9-0.2,18.6-14.5,27.1-29.7c1.1-2,2.8-2,3.9-0.4
				c1.1,1.5,0.4,8.7-2,13.7c-6.1,12.4-19.9,23.2-32.5,23.2c-18.9,0-25.8-15-17.8-32.7c8-18,27.3-42.3,24.1-43.3
				c-1.7-0.7-9.1,1.7-23.2,15.8c-18,18-28.6,38.8-37.7,59.2c-1.3,2.6-3,3.3-5,1.1c-3.7-3.2-6.7-11.7-0.4-27.3
				c7.2-18,30.6-47.9,26.2-49.4c-2.6-1.1-13.2,4.8-27.1,19.9c-12.8,13.9-23.2,34-31.9,54.4c-0.9,1.9-2.2,2.8-4.1,1.1
				c-4.8-4.1-5.9-11.3-2.2-22.3c4.6-13.7,20.4-44.2,34-64.6c1.5-2.4,3.3-2.2,4.6,0c3.7,6.1,3,14.5-0.2,23.2
				C708.4,486.2,724.7,473.4,732.5,473.6z"/>
			<path class="st2" d="M865.1,475.1c2-2.8,3.7-3.3,5.2-1.3c3.3,3.9,5,13.2-0.2,24.1c-4.8,9.8-15.6,26-20.8,37.5
				c-5.4,12.1-5.6,21.5,1.7,21c8.9-0.4,20.8-15.2,28.4-30.1c1.1-2,2.6-2.2,3.5-0.2c0.9,1.9,0.9,7.4-2,13.4
				c-5.6,11.9-19.3,23.8-31.2,23.2c-11.7-0.7-17.8-7.6-17.8-17.8c-6.9,8.9-16.7,16.9-27.1,16.9c-20.2,0-24.3-27.5-6.3-53.7
				c17.6-25.6,34.7-35.3,45.5-35.3c9.3,0,13.7,7.2,13.2,15.6C860.1,483.1,862.7,478.6,865.1,475.1z M847.8,484
				c-6.9-0.7-22.8,13.4-34.7,32.7c-11.5,18.6-14.3,37.7-5.9,37.9c8.9,0.2,20.2-13.7,31.2-32.7C852.1,498.1,854.1,484.7,847.8,484z"
				/>
			<path class="st2" d="M895.2,555.5c10.4,0.9,25.6-14.7,34-31.4c1.5-2.8,3.9-3,4.8,0c1.1,3.5,0.2,8.2-2.2,13.4
				c-3,6.5-18.9,24.5-36.2,24.1c-15-0.4-23-10.8-18-34.2c8-37.7,32.7-76.9,54.8-99.9c3.3-3.5,6.3-3.9,9.3-1.1
				c6.3,5.6,7.6,13.7,5,23.8c-6.7,26.7-31,52.7-50.3,65.2C887.9,536.7,885.5,554.7,895.2,555.5z M939.4,445.6
				c-2.8-1.7-18.9,22.3-33.8,50.1c-2,3.5-3.7,6.9-5.2,10.4C930.1,482.1,942.3,447.4,939.4,445.6z"/>
		</g>
	</g>
	<g>
		<path class="st2" d="M19.9,736c-0.7-1.1-1.8-2-3.1-2.7c-1.3-0.7-2.8-1-4.5-1c-0.8,0-1.8,0.1-2.7,0.4c-0.8,0.3-1.7,0.6-2.4,1.1
			c-0.7,0.6-1.3,1.1-1.8,2c-0.4,0.8-0.7,1.7-0.7,2.8s0.1,2,0.6,2.7c0.4,0.7,1,1.3,1.7,1.8c0.7,0.6,1.5,1,2.5,1.3
			c1,0.3,2,0.7,3.1,1.1c1.3,0.4,2.7,0.8,3.9,1.4c1.4,0.6,2.5,1.1,3.6,2c1.1,0.8,2,1.8,2.7,3.1s1,2.8,1,4.7c0,2-0.4,3.8-1.1,5.2
			c-0.7,1.5-1.7,2.7-2.9,3.6c-1.3,1-2.7,1.7-4.3,2.1s-3.2,0.7-5,0.7c-2.4,0-4.7-0.4-7.1-1.4c-2.2-1-4.2-2.4-5.6-4.2l4.2-3.5
			c0.8,1.4,2.1,2.4,3.6,3.2s3.2,1.3,5,1.3c1,0,1.8-0.1,2.8-0.4s1.7-0.7,2.5-1.3c0.7-0.6,1.4-1.3,1.8-2.1c0.4-0.8,0.7-1.8,0.7-2.9
			s-0.3-2.1-0.7-2.9c-0.4-0.8-1.1-1.4-2-2c-0.8-0.6-1.8-1-2.9-1.4c-1.1-0.4-2.2-0.8-3.5-1.1c-1.3-0.4-2.5-0.8-3.6-1.4
			c-1.3-0.6-2.2-1.3-3.2-2c-1-0.8-1.7-1.8-2.2-3.1c-0.6-1.3-0.8-2.7-0.8-4.5c0-2,0.4-3.6,1.1-5c0.8-1.4,1.8-2.5,3.1-3.5
			c1.3-1,2.7-1.5,4.2-2s3.2-0.6,4.7-0.6c2.2,0,4.3,0.4,6.3,1.3c2,0.8,3.5,1.8,4.7,3.2L19.9,736z"/>
		<path class="st2" d="M74.4,748c0,2.9-0.6,5.7-1.5,8.2c-1,2.5-2.5,4.6-4.3,6.4c-1.8,1.8-3.9,3.2-6.4,4.2c-2.5,1-5.2,1.5-8.2,1.5
			c-2.9,0-5.7-0.6-8.1-1.5c-2.5-1-4.6-2.4-6.4-4.2c-1.8-1.8-3.2-3.9-4.2-6.4c-1-2.5-1.5-5.2-1.5-8.2c0-3.1,0.6-5.7,1.5-8.2
			c1-2.5,2.4-4.6,4.2-6.4c1.8-1.8,3.9-3.1,6.4-4.1c2.5-1,5.2-1.5,8.1-1.5c2.9,0,5.7,0.6,8.2,1.5c2.5,1,4.6,2.4,6.4,4.1
			c1.8,1.8,3.2,3.9,4.3,6.4C73.9,742.3,74.4,745.1,74.4,748z M68.5,748c0-2.1-0.3-4.1-1-6c-0.7-1.8-1.7-3.5-2.9-4.9
			c-1.3-1.4-2.8-2.5-4.6-3.4c-1.8-0.8-3.8-1.3-6.1-1.3c-2.2,0-4.2,0.4-6,1.3c-1.8,0.8-3.4,2-4.6,3.4c-1.3,1.4-2.2,3.1-2.9,4.9
			c-0.7,1.8-1,3.9-1,6s0.3,4.2,1,6c0.7,2,1.7,3.5,2.9,4.9c1.3,1.4,2.8,2.5,4.6,3.4c1.8,0.8,3.8,1.3,6,1.3c2.2,0,4.2-0.4,6-1.3
			c1.8-0.8,3.4-2,4.6-3.4c1.3-1.4,2.2-3.1,2.9-4.9C68.1,752.2,68.5,750.2,68.5,748z"/>
		<path class="st2" d="M90.8,762.7h17.2v4.7H85.3v-38.6h5.4L90.8,762.7L90.8,762.7z"/>
		<path class="st2" d="M131.5,768.4c-2.5,0-4.7-0.4-6.7-1.3c-2-0.8-3.5-2-4.7-3.4s-2.1-3.1-2.8-4.9c-0.6-1.8-0.8-3.8-0.8-5.7v-24.3
			h5.4v24c0,1.3,0.1,2.7,0.6,3.9c0.3,1.3,0.8,2.5,1.7,3.5c0.7,1,1.7,1.8,2.9,2.5c1.3,0.6,2.8,1,4.6,1s3.4-0.3,4.5-1
			c1.3-0.6,2.2-1.4,2.9-2.5c0.7-1,1.3-2.2,1.7-3.5c0.3-1.3,0.6-2.7,0.6-3.9v-24h5.4v24.3c0,2-0.3,3.9-0.8,5.7
			c-0.6,1.8-1.5,3.5-2.8,4.9s-2.8,2.5-4.7,3.4C136.3,768,134.1,768.4,131.5,768.4z"/>
		<path class="st2" d="M172.8,767.4h-5.4v-33.8h-12.4v-4.7H185v4.7h-12.4v33.8H172.8z"/>
		<path class="st2" d="M199.2,767.4h-5.4v-38.6h5.4V767.4z"/>
		<path class="st2" d="M251.1,748c0,2.9-0.6,5.7-1.5,8.2c-1,2.5-2.5,4.6-4.3,6.4s-3.9,3.2-6.4,4.2c-2.5,1-5.2,1.5-8.2,1.5
			c-2.9,0-5.7-0.6-8.1-1.5c-2.5-1-4.6-2.4-6.4-4.2s-3.2-3.9-4.2-6.4s-1.5-5.2-1.5-8.2c0-3.1,0.6-5.7,1.5-8.2c1-2.5,2.4-4.6,4.2-6.4
			s3.9-3.1,6.4-4.1c2.5-1,5.2-1.5,8.1-1.5c2.9,0,5.7,0.6,8.2,1.5c2.5,1,4.6,2.4,6.4,4.1c1.8,1.8,3.2,3.9,4.3,6.4
			C250.6,742.3,251.1,745.1,251.1,748z M245.3,748c0-2.1-0.3-4.1-1-6c-0.7-1.8-1.7-3.5-2.9-4.9s-2.8-2.5-4.6-3.4s-3.8-1.3-6.1-1.3
			c-2.2,0-4.2,0.4-6,1.3c-1.8,0.8-3.4,2-4.6,3.4s-2.2,3.1-2.9,4.9c-0.7,1.8-1,3.9-1,6s0.3,4.2,1,6c0.7,2,1.7,3.5,2.9,4.9
			c1.3,1.4,2.8,2.5,4.6,3.4c1.8,0.8,3.8,1.3,6,1.3c2.2,0,4.2-0.4,6-1.3c1.8-0.8,3.4-2,4.6-3.4c1.3-1.4,2.2-3.1,2.9-4.9
			C245,752.2,245.3,750.2,245.3,748z"/>
		<path class="st2" d="M289.3,759.6L289.3,759.6l0.1-30.9h5.4v38.6H288l-20.4-31.6h-0.1v31.6H262v-38.6h7L289.3,759.6z"/>
		<path class="st2" d="M327,736c-0.7-1.1-1.8-2-3.1-2.7s-2.8-1-4.5-1c-0.8,0-1.8,0.1-2.7,0.4c-0.8,0.3-1.7,0.6-2.4,1.1
			s-1.3,1.1-1.8,2c-0.6,0.8-0.7,1.7-0.7,2.8s0.1,2,0.6,2.7c0.4,0.7,1,1.3,1.7,1.8c0.7,0.6,1.5,1,2.5,1.3s2,0.7,3.1,1.1
			c1.3,0.4,2.7,0.8,3.9,1.4c1.4,0.6,2.5,1.1,3.6,2c1.1,0.8,2,1.8,2.7,3.1c0.7,1.3,1,2.8,1,4.7c0,2-0.4,3.8-1.1,5.2
			c-0.7,1.4-1.7,2.7-2.9,3.6c-1.3,1-2.7,1.7-4.3,2.1c-1.7,0.4-3.2,0.7-5,0.7c-2.4,0-4.7-0.4-7.1-1.4c-2.2-1-4.2-2.4-5.6-4.2l4.2-3.5
			c1,1.4,2.1,2.4,3.6,3.2s3.2,1.3,5,1.3c1,0,1.8-0.1,2.8-0.4c0.8-0.3,1.7-0.7,2.5-1.3c0.8-0.6,1.4-1.3,1.8-2.1s0.7-1.8,0.7-2.9
			s-0.3-2.1-0.7-2.9s-1.1-1.4-2-2c-0.8-0.6-1.8-1-2.9-1.4s-2.2-0.8-3.5-1.1c-1.3-0.4-2.5-0.8-3.6-1.4c-1.3-0.6-2.2-1.3-3.2-2
			c-1-0.8-1.7-1.8-2.2-3.1c-0.6-1.3-0.8-2.7-0.8-4.5c0-2,0.4-3.6,1.1-5c0.8-1.4,1.8-2.5,3.1-3.5c1.3-1,2.7-1.5,4.2-2
			c1.5-0.4,3.2-0.6,4.7-0.6c2.2,0,4.3,0.4,6.3,1.3c2,0.8,3.5,1.8,4.7,3.2L327,736z"/>
		<path class="st2" d="M365,767.4h-5.4v-38.6h24.2v4.7H365v12h17.5v4.6H365L365,767.4L365,767.4z"/>
		<path class="st2" d="M433.1,748c0,2.9-0.6,5.7-1.5,8.2c-1,2.5-2.5,4.6-4.3,6.4c-1.8,1.8-3.9,3.2-6.4,4.2c-2.5,1-5.2,1.5-8.2,1.5
			c-2.9,0-5.7-0.6-8.1-1.5c-2.5-1-4.6-2.4-6.4-4.2c-1.8-1.8-3.2-3.9-4.2-6.4s-1.5-5.2-1.5-8.2c0-3.1,0.6-5.7,1.5-8.2
			c1-2.5,2.4-4.6,4.2-6.4c1.8-1.8,3.9-3.1,6.4-4.1c2.5-1,5.2-1.5,8.1-1.5c2.9,0,5.7,0.6,8.2,1.5c2.5,1,4.6,2.4,6.4,4.1
			c1.8,1.8,3.2,3.9,4.3,6.4C432.6,742.3,433.1,745.1,433.1,748z M427.3,748c0-2.1-0.3-4.1-1-6c-0.7-1.8-1.7-3.5-2.9-4.9
			c-1.3-1.4-2.8-2.5-4.6-3.4c-1.8-0.8-3.8-1.3-6.1-1.3c-2.2,0-4.2,0.4-6,1.3c-1.8,0.8-3.4,2-4.6,3.4c-1.3,1.4-2.2,3.1-2.9,4.9
			c-0.7,1.8-1,3.9-1,6s0.3,4.2,1,6c0.7,2,1.7,3.5,2.9,4.9c1.3,1.4,2.8,2.5,4.6,3.4s3.8,1.3,6,1.3c2.2,0,4.2-0.4,6-1.3
			c1.8-0.8,3.4-2,4.6-3.4c1.3-1.4,2.2-3.1,2.9-4.9C427,752.2,427.3,750.2,427.3,748z"/>
		<path class="st2" d="M449.5,767.4H444v-38.6h12.4c1.8,0,3.6,0.1,5.3,0.6s3.1,1,4.3,1.8c1.3,0.8,2.2,2,2.9,3.4
			c0.7,1.4,1.1,3.1,1.1,5c0,2.8-0.8,5.2-2.7,6.8c-1.7,1.7-4.1,2.8-6.7,3.4l10.8,17.7H465l-9.8-17.2h-5.7L449.5,767.4L449.5,767.4z
			 M449.5,745.8h6.1c1.3,0,2.5-0.1,3.5-0.3c1.1-0.3,2.1-0.6,2.8-1.1c0.8-0.6,1.4-1.1,2-2c0.6-0.8,0.7-1.8,0.7-2.9s-0.3-2.1-0.7-2.9
			s-1.1-1.4-1.8-1.8c-0.8-0.4-1.7-0.8-2.8-1c-1.1-0.1-2.1-0.3-3.4-0.3h-6.6v12.3H449.5z"/>
		<path class="st2" d="M499.9,767.4h-6l16.8-38.6h4.9l16.6,38.6H526l-3.9-9.5h-18.3L499.9,767.4z M505.8,753.2h14.4l-7.3-18.2
			L505.8,753.2z"/>
		<path class="st2" d="M546.1,762.7h17.2v4.7h-22.6v-38.6h5.4V762.7z"/>
		<path class="st2" d="M577.6,762.7h17.2v4.7h-22.6v-38.6h5.4V762.7z"/>
		<path class="st2" d="M648.1,759.6L648.1,759.6l0.1-30.9h5.4v38.6h-7l-20.4-31.6h-0.1v31.6h-5.4v-38.6h7L648.1,759.6z"/>
		<path class="st2" d="M672,762.7h20.1v4.7h-25.6v-38.6h24.7v4.7h-19.4v11.6H690v4.6h-18.2v12.9H672z"/>
		<path class="st2" d="M713.1,759.6L713.1,759.6l9.2-30.7h6l8.9,30.7h0.1l8.5-30.7h5.7l-11.3,38.6h-5.6l-9.4-31h-0.1l-9.4,31h-5.6
			L699,728.9h5.9L713.1,759.6z"/>
		<path class="st2" d="M777.6,728.9h5.4v16.2h19.6v-16.2h5.4v38.6h-5.4v-17.7H783v17.6h-5.4V728.9z"/>
		<path class="st2" d="M859.9,748c0,2.9-0.6,5.7-1.5,8.2c-1,2.5-2.5,4.6-4.3,6.4c-1.8,1.8-3.9,3.2-6.4,4.2c-2.5,1-5.2,1.5-8.2,1.5
			c-2.9,0-5.7-0.6-8.1-1.5c-2.5-1-4.6-2.4-6.4-4.2c-1.8-1.8-3.2-3.9-4.2-6.4c-1-2.5-1.5-5.2-1.5-8.2c0-3.1,0.6-5.7,1.5-8.2
			c1-2.5,2.4-4.6,4.2-6.4c1.8-1.8,3.9-3.1,6.4-4.1c2.5-1,5.2-1.5,8.1-1.5s5.7,0.6,8.2,1.5c2.5,1,4.6,2.4,6.4,4.1
			c1.8,1.8,3.2,3.9,4.3,6.4C859.3,742.3,859.9,745.1,859.9,748z M854,748c0-2.1-0.3-4.1-1-6c-0.7-1.8-1.7-3.5-2.9-4.9
			c-1.3-1.4-2.8-2.5-4.6-3.4c-1.8-0.8-3.8-1.3-6.1-1.3c-2.2,0-4.2,0.4-6,1.3c-1.8,0.8-3.4,2-4.6,3.4c-1.3,1.4-2.2,3.1-2.9,4.9
			c-0.7,1.8-1,3.9-1,6s0.3,4.2,1,6c0.7,2,1.7,3.5,2.9,4.9c1.3,1.4,2.8,2.5,4.6,3.4c1.8,0.8,3.8,1.3,6,1.3s4.2-0.4,6-1.3
			c1.8-0.8,3.4-2,4.6-3.4c1.3-1.4,2.2-3.1,2.9-4.9C853.7,752.2,854,750.2,854,748z"/>
		<path class="st2" d="M870.9,728.9h11.7c2.1,0,3.9,0.3,5.7,0.6c1.7,0.4,3.2,1.1,4.3,2c1.3,0.8,2.1,2,2.8,3.4c0.7,1.4,1,2.9,1,4.9
			c0,2-0.4,3.6-1.1,5s-1.7,2.5-2.9,3.4s-2.8,1.5-4.5,2c-1.7,0.4-3.6,0.6-5.6,0.6h-6.1v16.9h-5.4v-38.6H870.9z M876.2,745.9h5.7
			c1.3,0,2.5-0.1,3.6-0.4c1.1-0.3,2.1-0.6,2.8-1.1c0.8-0.6,1.4-1.1,1.8-2c0.4-0.8,0.7-1.8,0.7-2.9s-0.3-2.1-0.7-2.9s-1.1-1.4-1.8-2
			c-0.8-0.6-1.7-0.8-2.8-1c-1.1-0.1-2.2-0.3-3.5-0.3h-5.9V745.9z"/>
		<path class="st2" d="M912.3,762.7h20.1v4.7h-25.6v-38.6h24.7v4.7h-19.4v11.6h18.2v4.6h-18.2v12.9H912.3z"/>
	</g>
	<line class="st3" x1="2.3" y1="689.7" x2="934.2" y2="689.7"/>
</g>
</svg>
