<?xml version="1.0" encoding="utf-8"?>
<!-- Generator: Adobe Illustrator 26.5.0, SVG Export Plug-In . SVG Version: 6.00 Build 0)  -->
<svg version="1.1" id="Layer_1" xmlns="http://www.w3.org/2000/svg" xmlns:xlink="http://www.w3.org/1999/xlink" x="0px" y="0px"
	 viewBox="0 0 1086.8 261.8" style="enable-background:new 0 0 1086.8 261.8;" xml:space="preserve">
<style type="text/css">
	.st0{fill:url(#SVGID_1_);}
	.st1{fill:#522324;}
	.st2{fill:none;stroke:#522324;stroke-width:2;stroke-miterlimit:10;}
	.st3{fill:#878300;}
</style>
<g>
	
		<linearGradient id="SVGID_1_" gradientUnits="userSpaceOnUse" x1="49.6897" y1="768.1556" x2="449.0798" y2="497.8256" gradientTransform="matrix(1 0 0 1 0 -504)">
		<stop  offset="0" style="stop-color:#522324"/>
		<stop  offset="0.62" style="stop-color:#878300"/>
		<stop  offset="1" style="stop-color:#D9E053"/>
	</linearGradient>
	<path class="st0" d="M379,58.6c3.4-32.4-21.7-53.5-46.1-56.4c-49.6-5.9-83.2,67.4-106.7,112.3L238.1,0c-21.4,0-30.5,15.3-40.9,28.9
		c-11.6,15.1-27.5,37.5-44.5,62c-3.9-4.3-8.1-8.3-12.7-11.8c-25.7-19.6-55.2-22.9-78.8-8.8c-21.9,13-34.3,38.2-31,62.7
		c3.6,25.9,23.5,45.9,55.1,55.6c-6.3,9-12,17.2-16.8,24c-7.8,11-14.5,17.3-22.2,21.1c0-0.7-0.1-1.4-0.2-2.1c0-0.1,0-0.1,0-0.2
		c-0.1-0.6-0.2-1.3-0.4-1.9c0-0.1,0-0.2-0.1-0.3c-0.2-0.6-0.3-1.2-0.5-1.8L45,227c-0.2-0.5-0.4-1.1-0.7-1.6
		c-0.1-0.1-0.1-0.3-0.2-0.4c-0.2-0.5-0.5-1-0.8-1.4l-0.3-0.5c-0.3-0.4-0.5-0.9-0.8-1.3l-0.4-0.5c-0.3-0.4-0.6-0.8-0.9-1.1l-0.5-0.5
		c-0.3-0.3-0.6-0.7-1-1l-0.6-0.5c-0.3-0.3-0.7-0.6-1-0.9s-0.5-0.4-0.7-0.5s-0.7-0.5-1-0.7s-0.5-0.3-0.8-0.5s-0.7-0.4-1-0.6l-1-0.5
		c-0.3-0.2-0.7-0.3-1-0.5s-0.7-0.3-1.1-0.4s-0.6-0.2-1-0.3s-0.8-0.2-1.2-0.3l-0.9-0.2c-0.5-0.1-1-0.2-1.5-0.2
		c-0.3,0-0.5-0.1-0.8-0.1c-0.8-0.1-1.5-0.1-2.3-0.1s-1.6,0-2.4,0.1c-0.3,0-0.5,0.1-0.8,0.1c-0.5,0.1-1,0.1-1.5,0.2
		c-0.3,0.1-0.6,0.1-0.9,0.2c-0.5,0.1-0.9,0.2-1.4,0.4c-0.5,0.2-0.6,0.2-0.9,0.3s-0.8,0.3-1.2,0.4s-0.6,0.3-0.9,0.4s-0.8,0.4-1.1,0.5
		s-0.6,0.4-0.9,0.5s-0.7,0.4-1,0.6s-0.6,0.4-0.8,0.6s-0.7,0.5-1,0.7s-0.5,0.5-0.8,0.7s-0.6,0.5-0.9,0.8s-0.5,0.5-0.7,0.8
		s-0.6,0.6-0.8,0.9s-0.4,0.6-0.6,0.9s-0.5,0.6-0.7,0.9c-0.2,0.3-0.4,0.6-0.6,0.9s-0.4,0.7-0.6,1s-0.3,0.6-0.5,1S2.1,226,2,226.4
		c-0.1,0.4-0.3,0.7-0.4,1s-0.3,0.7-0.4,1.1s-0.2,0.7-0.3,1.1s-0.2,0.8-0.3,1.2s-0.1,0.7-0.2,1.1s-0.1,0.8-0.2,1.2s0,0.8-0.1,1.1
		s-0.1,0.7-0.1,1c0,0.1,0,0.1,0,0.2s0,0.1,0,0.2v0.1c0,5.8,2.3,11.4,6.2,15.6l0.2,0.2l0.1,0.1c10.1,11.4,27.5,10,27.5,10
		c2.5,0,5-0.2,7.5-0.6c18.5-2.8,35-20.2,48-38.2c5.5-7.7,12.4-18.1,20.1-30.2c27.6,0.4,60.9-11.5,85-25.7l-7.4,61.6
		c-2.7,17.6-15.1,21.2-15.1,21.2l-1.5,12.1H183l0,0h41.4l1.4-11.7c0,0-13.3-3.1-11.2-23.8l0,0l8.8-84.7c3.7-5.5,8.1-12.2,11.3-17.3
		c19.4-30.5,58.2-96.1,92.7-88c52,12.2,0.4,79.2-49.9,111.8c-2.2,1.4,8.4,6,8.4,6s62.1-5.3,59.2,39.6c-1.6,24.4-18.7,38.5-38.9,42
		c-21.4,3.7-51.8-0.9-78.2-42.2h-3.7c12.7,43.5,42.4,65.4,69.4,68c25.2,2.4,77.6-6.3,80.1-63.8c2.4-54.3-57.2-61.4-57.2-61.4
		S374.2,104,379,58.6z M99.3,166.4c-35.4-8.5-40.5-26.9-42-37.1C55.3,115,63,99.6,76,91.9c0,0,21.7-17.8,54.5,3.4
		c4.4,2.9,8.6,6.1,12.5,9.7c-14.4,20.7-29.2,42.2-42.6,61.7C100.1,166.5,99.7,166.4,99.3,166.4z M124.5,169
		c10.1-16.1,20.9-33.7,31.8-51.1c11.4,12.1,22.2,25.9,28.2,36.2C167.9,164.4,145,169,124.5,169z M192.3,149.7
		c-7.2-12.1-16.7-29.1-28-44.6c16.7-26.4,33-51.3,45.9-68.3l-12.9,107.9C195.7,146.6,194.1,148.2,192.3,149.7L192.3,149.7z"/>
	<g>
		<path class="st1" d="M422.3,232.2c-0.5-0.8-1.3-1.4-2.2-1.9c-0.9-0.5-2-0.7-3.2-0.7c-0.6,0-1.3,0.1-1.9,0.3s-1.2,0.4-1.7,0.8
			c-0.5,0.4-0.9,0.8-1.3,1.4c-0.3,0.6-0.5,1.2-0.5,2s0.1,1.4,0.4,1.9s0.7,0.9,1.2,1.3c0.5,0.4,1.1,0.7,1.8,0.9
			c0.7,0.2,1.4,0.5,2.2,0.8c0.9,0.3,1.9,0.6,2.8,1c1,0.4,1.8,0.8,2.6,1.4s1.4,1.3,1.9,2.2s0.7,2,0.7,3.4s-0.3,2.7-0.8,3.7
			c-0.5,1.1-1.2,1.9-2.1,2.6c-0.9,0.7-1.9,1.2-3.1,1.5s-2.3,0.5-3.6,0.5c-1.7,0-3.4-0.3-5.1-1c-1.6-0.7-3-1.7-4-3l3-2.5
			c0.6,1,1.5,1.7,2.6,2.3s2.3,0.9,3.6,0.9c0.7,0,1.3-0.1,2-0.3s1.2-0.5,1.8-0.9c0.5-0.4,1-0.9,1.3-1.5s0.5-1.3,0.5-2.1
			s-0.2-1.5-0.5-2.1s-0.8-1-1.4-1.4s-1.3-0.7-2.1-1c-0.8-0.3-1.6-0.6-2.5-0.8c-0.9-0.3-1.8-0.6-2.6-1c-0.9-0.4-1.6-0.9-2.3-1.4
			c-0.7-0.6-1.2-1.3-1.6-2.2s-0.6-1.9-0.6-3.2c0-1.4,0.3-2.6,0.8-3.6c0.6-1,1.3-1.8,2.2-2.5c0.9-0.7,1.9-1.1,3-1.4
			c1.1-0.3,2.3-0.4,3.4-0.4c1.6,0,3.1,0.3,4.5,0.9c1.4,0.6,2.5,1.3,3.4,2.3L422.3,232.2z"/>
		<path class="st1" d="M461.3,240.8c0,2.1-0.4,4.1-1.1,5.9s-1.8,3.3-3.1,4.6c-1.3,1.3-2.8,2.3-4.6,3c-1.8,0.7-3.7,1.1-5.9,1.1
			c-2.1,0-4.1-0.4-5.8-1.1c-1.8-0.7-3.3-1.7-4.6-3c-1.3-1.3-2.3-2.8-3-4.6s-1.1-3.7-1.1-5.9s0.4-4.1,1.1-5.9c0.7-1.8,1.7-3.3,3-4.6
			s2.8-2.2,4.6-2.9c1.8-0.7,3.7-1.1,5.8-1.1c2.1,0,4.1,0.4,5.9,1.1c1.8,0.7,3.3,1.7,4.6,2.9c1.3,1.3,2.3,2.8,3.1,4.6
			C460.9,236.7,461.3,238.7,461.3,240.8z M457.1,240.8c0-1.5-0.2-2.9-0.7-4.3c-0.5-1.3-1.2-2.5-2.1-3.5s-2-1.8-3.3-2.4
			c-1.3-0.6-2.7-0.9-4.4-0.9c-1.6,0-3,0.3-4.3,0.9c-1.3,0.6-2.4,1.4-3.3,2.4s-1.6,2.2-2.1,3.5s-0.7,2.8-0.7,4.3s0.2,3,0.7,4.3
			c0.5,1.4,1.2,2.5,2.1,3.5s2,1.8,3.3,2.4c1.3,0.6,2.7,0.9,4.3,0.9c1.6,0,3-0.3,4.3-0.9c1.3-0.6,2.4-1.4,3.3-2.4s1.6-2.2,2.1-3.5
			S457.1,242.4,457.1,240.8z"/>
		<path class="st1" d="M473,251.3h12.3v3.4h-16.2v-27.6h3.9L473,251.3L473,251.3z"/>
		<path class="st1" d="M502.2,255.4c-1.8,0-3.4-0.3-4.8-0.9c-1.4-0.6-2.5-1.4-3.4-2.4s-1.5-2.2-2-3.5c-0.4-1.3-0.6-2.7-0.6-4.1
			v-17.4h3.9v17.2c0,0.9,0.1,1.9,0.4,2.8c0.2,0.9,0.6,1.8,1.2,2.5c0.5,0.7,1.2,1.3,2.1,1.8c0.9,0.4,2,0.7,3.3,0.7s2.4-0.2,3.2-0.7
			c0.9-0.4,1.6-1,2.1-1.8c0.5-0.7,0.9-1.6,1.2-2.5c0.2-0.9,0.4-1.9,0.4-2.8v-17.2h3.9v17.4c0,1.4-0.2,2.8-0.6,4.1
			c-0.4,1.3-1.1,2.5-2,3.5s-2,1.8-3.4,2.4C505.6,255.1,504,255.4,502.2,255.4z"/>
		<path class="st1" d="M531.7,254.7h-3.9v-24.2h-8.9v-3.4h21.6v3.4h-8.9v24.2H531.7z"/>
		<path class="st1" d="M550.6,254.7h-3.9v-27.6h3.9V254.7z"/>
		<path class="st1" d="M587.8,240.8c0,2.1-0.4,4.1-1.1,5.9c-0.7,1.8-1.8,3.3-3.1,4.6s-2.8,2.3-4.6,3s-3.7,1.1-5.9,1.1
			c-2.1,0-4.1-0.4-5.8-1.1c-1.8-0.7-3.3-1.7-4.6-3s-2.3-2.8-3-4.6s-1.1-3.7-1.1-5.9s0.4-4.1,1.1-5.9c0.7-1.8,1.7-3.3,3-4.6
			s2.8-2.2,4.6-2.9s3.7-1.1,5.8-1.1s4.1,0.4,5.9,1.1c1.8,0.7,3.3,1.7,4.6,2.9c1.3,1.3,2.3,2.8,3.1,4.6
			C587.4,236.7,587.8,238.7,587.8,240.8z M583.6,240.8c0-1.5-0.2-2.9-0.7-4.3c-0.5-1.3-1.2-2.5-2.1-3.5s-2-1.8-3.3-2.4
			c-1.3-0.6-2.7-0.9-4.4-0.9c-1.6,0-3,0.3-4.3,0.9c-1.3,0.6-2.4,1.4-3.3,2.4s-1.6,2.2-2.1,3.5s-0.7,2.8-0.7,4.3s0.2,3,0.7,4.3
			c0.5,1.4,1.2,2.5,2.1,3.5c0.9,1,2,1.8,3.3,2.4c1.3,0.6,2.7,0.9,4.3,0.9s3-0.3,4.3-0.9c1.3-0.6,2.4-1.4,3.3-2.4
			c0.9-1,1.6-2.2,2.1-3.5C583.4,243.8,583.6,242.4,583.6,240.8z"/>
		<path class="st1" d="M615.1,249.1L615.1,249.1l0.1-22.1h3.9v27.6h-4.9L599.6,232h-0.1v22.6h-3.9V227h5L615.1,249.1z"/>
		<path class="st1" d="M642.1,232.2c-0.5-0.8-1.3-1.4-2.2-1.9s-2-0.7-3.2-0.7c-0.6,0-1.3,0.1-1.9,0.3c-0.6,0.2-1.2,0.4-1.7,0.8
			s-0.9,0.8-1.3,1.4s-0.5,1.2-0.5,2s0.1,1.4,0.4,1.9c0.3,0.5,0.7,0.9,1.2,1.3c0.5,0.4,1.1,0.7,1.8,0.9s1.4,0.5,2.2,0.8
			c0.9,0.3,1.9,0.6,2.8,1c1,0.4,1.8,0.8,2.6,1.4c0.8,0.6,1.4,1.3,1.9,2.2s0.7,2,0.7,3.4s-0.3,2.7-0.8,3.7s-1.2,1.9-2.1,2.6
			c-0.9,0.7-1.9,1.2-3.1,1.5s-2.3,0.5-3.6,0.5c-1.7,0-3.4-0.3-5.1-1c-1.6-0.7-3-1.7-4-3l3-2.5c0.7,1,1.5,1.7,2.6,2.3
			s2.3,0.9,3.6,0.9c0.7,0,1.3-0.1,2-0.3c0.6-0.2,1.2-0.5,1.8-0.9s1-0.9,1.3-1.5s0.5-1.3,0.5-2.1s-0.2-1.5-0.5-2.1s-0.8-1-1.4-1.4
			s-1.3-0.7-2.1-1s-1.6-0.6-2.5-0.8c-0.9-0.3-1.8-0.6-2.6-1c-0.9-0.4-1.6-0.9-2.3-1.4c-0.7-0.6-1.2-1.3-1.6-2.2
			c-0.4-0.9-0.6-1.9-0.6-3.2c0-1.4,0.3-2.6,0.8-3.6c0.6-1,1.3-1.8,2.2-2.5s1.9-1.1,3-1.4c1.1-0.3,2.3-0.4,3.4-0.4
			c1.6,0,3.1,0.3,4.5,0.9c1.4,0.6,2.5,1.3,3.4,2.3L642.1,232.2z"/>
		<path class="st1" d="M669.3,254.7h-3.9v-27.6h17.3v3.4h-13.4v8.6h12.5v3.3h-12.5L669.3,254.7L669.3,254.7z"/>
		<path class="st1" d="M718.1,240.8c0,2.1-0.4,4.1-1.1,5.9s-1.8,3.3-3.1,4.6s-2.8,2.3-4.6,3s-3.7,1.1-5.9,1.1
			c-2.1,0-4.1-0.4-5.8-1.1c-1.8-0.7-3.3-1.7-4.6-3s-2.3-2.8-3-4.6s-1.1-3.7-1.1-5.9s0.4-4.1,1.1-5.9c0.7-1.8,1.7-3.3,3-4.6
			s2.8-2.2,4.6-2.9s3.7-1.1,5.8-1.1s4.1,0.4,5.9,1.1c1.8,0.7,3.3,1.7,4.6,2.9c1.3,1.3,2.3,2.8,3.1,4.6
			C717.7,236.7,718.1,238.7,718.1,240.8z M713.9,240.8c0-1.5-0.2-2.9-0.7-4.3c-0.5-1.3-1.2-2.5-2.1-3.5c-0.9-1-2-1.8-3.3-2.4
			c-1.3-0.6-2.7-0.9-4.4-0.9c-1.6,0-3,0.3-4.3,0.9c-1.3,0.6-2.4,1.4-3.3,2.4c-0.9,1-1.6,2.2-2.1,3.5s-0.7,2.8-0.7,4.3s0.2,3,0.7,4.3
			c0.5,1.4,1.2,2.5,2.1,3.5c0.9,1,2,1.8,3.3,2.4c1.3,0.6,2.7,0.9,4.3,0.9s3-0.3,4.3-0.9c1.3-0.6,2.4-1.4,3.3-2.4
			c0.9-1,1.6-2.2,2.1-3.5C713.7,243.8,713.9,242.4,713.9,240.8z"/>
		<path class="st1" d="M729.8,254.7h-3.9v-27.6h8.9c1.3,0,2.6,0.1,3.8,0.4c1.2,0.3,2.2,0.7,3.1,1.3c0.9,0.6,1.6,1.4,2.1,2.4
			s0.8,2.2,0.8,3.6c0,2-0.6,3.7-1.9,4.9c-1.2,1.2-2.9,2-4.8,2.4l7.7,12.7h-4.7l-7-12.3h-4.1L729.8,254.7L729.8,254.7z M729.8,239.2
			h4.4c0.9,0,1.8-0.1,2.5-0.2c0.8-0.2,1.5-0.4,2-0.8c0.6-0.4,1-0.8,1.4-1.4s0.5-1.3,0.5-2.1s-0.2-1.5-0.5-2.1s-0.8-1-1.3-1.3
			c-0.6-0.3-1.2-0.6-2-0.7c-0.8-0.1-1.5-0.2-2.4-0.2h-4.7L729.8,239.2L729.8,239.2z"/>
		<path class="st1" d="M765.9,254.7h-4.3l12-27.6h3.5l11.9,27.6h-4.4l-2.8-6.8h-13.1L765.9,254.7z M770.1,244.5h10.3l-5.2-13
			L770.1,244.5z"/>
		<path class="st1" d="M799,251.3h12.3v3.4h-16.2v-27.6h3.9V251.3z"/>
		<path class="st1" d="M821.5,251.3h12.3v3.4h-16.2v-27.6h3.9V251.3z"/>
		<path class="st1" d="M872,249.1L872,249.1l0.1-22.1h3.9v27.6h-5L856.4,232h-0.1v22.6h-3.9V227h5L872,249.1z"/>
		<path class="st1" d="M889.1,251.3h14.4v3.4h-18.3v-27.6h17.7v3.4H889v8.3h13v3.3h-13L889.1,251.3L889.1,251.3z"/>
		<path class="st1" d="M918.5,249.1L918.5,249.1l6.6-22h4.3l6.4,22h0.1l6.1-22h4.1l-8.1,27.6h-4l-6.7-22.2h-0.1l-6.7,22.2h-4
			l-8.1-27.6h4.2L918.5,249.1z"/>
		<path class="st1" d="M964.7,227.1h3.9v11.6h14v-11.6h3.9v27.6h-3.9V242h-14v12.6h-3.9V227.1z"/>
		<path class="st1" d="M1023.6,240.8c0,2.1-0.4,4.1-1.1,5.9s-1.8,3.3-3.1,4.6s-2.8,2.3-4.6,3s-3.7,1.1-5.9,1.1
			c-2.1,0-4.1-0.4-5.8-1.1c-1.8-0.7-3.3-1.7-4.6-3s-2.3-2.8-3-4.6s-1.1-3.7-1.1-5.9s0.4-4.1,1.1-5.9c0.7-1.8,1.7-3.3,3-4.6
			s2.8-2.2,4.6-2.9s3.7-1.1,5.8-1.1s4.1,0.4,5.9,1.1c1.8,0.7,3.3,1.7,4.6,2.9c1.3,1.3,2.3,2.8,3.1,4.6
			C1023.2,236.7,1023.6,238.7,1023.6,240.8z M1019.4,240.8c0-1.5-0.2-2.9-0.7-4.3c-0.5-1.3-1.2-2.5-2.1-3.5c-0.9-1-2-1.8-3.3-2.4
			c-1.3-0.6-2.7-0.9-4.4-0.9c-1.6,0-3,0.3-4.3,0.9c-1.3,0.6-2.4,1.4-3.3,2.4c-0.9,1-1.6,2.2-2.1,3.5s-0.7,2.8-0.7,4.3s0.2,3,0.7,4.3
			c0.5,1.4,1.2,2.5,2.1,3.5c0.9,1,2,1.8,3.3,2.4c1.3,0.6,2.7,0.9,4.3,0.9s3-0.3,4.3-0.9c1.3-0.6,2.4-1.4,3.3-2.4
			c0.9-1,1.6-2.2,2.1-3.5C1019.2,243.8,1019.4,242.4,1019.4,240.8z"/>
		<path class="st1" d="M1031.5,227.1h8.4c1.5,0,2.8,0.2,4.1,0.4c1.2,0.3,2.3,0.8,3.1,1.4c0.9,0.6,1.5,1.4,2,2.4s0.7,2.1,0.7,3.5
			s-0.3,2.6-0.8,3.6s-1.2,1.8-2.1,2.4c-0.9,0.6-2,1.1-3.2,1.4c-1.2,0.3-2.6,0.4-4,0.4h-4.4v12.1h-3.9v-27.6H1031.5z M1035.3,239.3
			h4.1c0.9,0,1.8-0.1,2.6-0.3c0.8-0.2,1.5-0.4,2-0.8c0.6-0.4,1-0.8,1.3-1.4c0.3-0.6,0.5-1.3,0.5-2.1s-0.2-1.5-0.5-2.1
			s-0.8-1-1.3-1.4c-0.6-0.4-1.2-0.6-2-0.7c-0.8-0.1-1.6-0.2-2.5-0.2h-4.2V239.3z"/>
		<path class="st1" d="M1061.1,251.3h14.4v3.4h-18.3v-27.6h17.7v3.4H1061v8.3h13v3.3h-13v9.2H1061.1z"/>
	</g>
	<line class="st2" x1="409.7" y1="199.1" x2="1076.8" y2="199.1"/>
	<g>
		<g>
			<path class="st3" d="M420.4,143h-11.3v-5.7h29.1v5.7h-11.3v31h-6.5V143z"/>
			<path class="st3" d="M454.8,137.3h24.3v5.7h-17.8v9.3h16.9v5.5h-16.9v10.4h18.7v5.8h-25.3V137.3z"/>
			<path class="st3" d="M525.4,145.9c-1-1.3-2.2-2.3-3.8-2.9c-1.6-0.6-3.1-0.9-4.6-0.9c-1.9,0-3.6,0.3-5.2,1c-1.6,0.7-2.9,1.6-4,2.9
				c-1.1,1.2-2,2.6-2.6,4.3c-0.6,1.6-0.9,3.4-0.9,5.3c0,2,0.3,3.8,0.9,5.5c0.6,1.7,1.4,3.1,2.5,4.3c1.1,1.2,2.4,2.1,3.9,2.8
				c1.5,0.7,3.2,1,5.1,1c2,0,3.7-0.4,5.2-1.2s2.8-1.8,3.7-3.1l5.2,3.7c-1.6,2-3.6,3.6-6,4.7c-2.4,1.1-5.1,1.7-8.3,1.7
				c-2.9,0-5.5-0.5-7.9-1.4s-4.5-2.3-6.2-4c-1.7-1.7-3.1-3.8-4-6.1c-1-2.4-1.5-5-1.5-7.9c0-2.9,0.5-5.6,1.5-8c1-2.4,2.4-4.4,4.2-6
				c1.8-1.7,3.9-2.9,6.3-3.8c2.4-0.9,5.1-1.3,7.9-1.3c1.2,0,2.4,0.1,3.7,0.3c1.3,0.2,2.5,0.6,3.7,1s2.3,1,3.3,1.7
				c1,0.7,1.9,1.5,2.6,2.5L525.4,145.9z"/>
			<path class="st3" d="M547.4,137.3h6.5v14.8h17.2v-14.8h6.5v36.7h-6.5v-16.3h-17.2v16.3h-6.5V137.3z"/>
			<path class="st3" d="M598.1,137.3h8.7l17.1,27.5h0.1v-27.5h6.5v36.7h-8.3l-17.4-28.4h-0.1v28.4h-6.5V137.3z"/>
			<path class="st3" d="M651,137.3h6.5v36.7H651V137.3z"/>
			<path class="st3" d="M704.6,145.9c-1-1.3-2.2-2.3-3.8-2.9c-1.6-0.6-3.1-0.9-4.6-0.9c-1.9,0-3.6,0.3-5.2,1c-1.6,0.7-2.9,1.6-4,2.9
				c-1.1,1.2-2,2.6-2.6,4.3c-0.6,1.6-0.9,3.4-0.9,5.3c0,2,0.3,3.8,0.9,5.5c0.6,1.7,1.4,3.1,2.5,4.3c1.1,1.2,2.4,2.1,3.9,2.8
				c1.5,0.7,3.2,1,5.1,1c2,0,3.7-0.4,5.2-1.2s2.8-1.8,3.7-3.1l5.2,3.7c-1.6,2-3.6,3.6-6,4.7c-2.4,1.1-5.1,1.7-8.3,1.7
				c-2.9,0-5.5-0.5-7.9-1.4s-4.5-2.3-6.2-4c-1.7-1.7-3.1-3.8-4-6.1c-1-2.4-1.5-5-1.5-7.9c0-2.9,0.5-5.6,1.5-8c1-2.4,2.4-4.4,4.2-6
				c1.8-1.7,3.9-2.9,6.3-3.8c2.4-0.9,5.1-1.3,7.9-1.3c1.2,0,2.4,0.1,3.7,0.3c1.3,0.2,2.5,0.6,3.7,1s2.3,1,3.3,1.7
				c1,0.7,1.9,1.5,2.6,2.5L704.6,145.9z"/>
			<path class="st3" d="M737.5,137.3h5.7l15.8,36.7h-7.5l-3.4-8.4h-15.9l-3.3,8.4h-7.3L737.5,137.3z M745.8,160l-5.7-14.9l-5.8,14.9
				H745.8z"/>
			<path class="st3" d="M775,137.3h6.5v30.9h15.6v5.8H775V137.3z"/>
			<path class="st3" d="M834.3,137.3h7.2l7.1,27h0.1l8.1-27h6.7l7.9,27h0.1l7.3-27h7L875,174.1h-6.3l-8.6-27.6H860l-8.6,27.6H845
				L834.3,137.3z"/>
			<path class="st3" d="M900.2,155.6c0-2.9,0.5-5.6,1.5-8c1-2.4,2.4-4.4,4.1-6c1.7-1.7,3.8-2.9,6.2-3.8c2.4-0.9,5-1.3,7.9-1.3
				c2.9,0,5.5,0.5,7.9,1.3c2.4,0.9,4.5,2.2,6.3,3.8c1.8,1.7,3.1,3.7,4.1,6c1,2.4,1.5,5,1.5,8c0,2.9-0.5,5.5-1.5,7.9
				c-1,2.4-2.4,4.4-4.1,6.1c-1.8,1.7-3.9,3-6.3,4c-2.4,1-5.1,1.4-7.9,1.4c-2.8,0-5.5-0.5-7.9-1.4s-4.5-2.3-6.2-4
				c-1.7-1.7-3.1-3.8-4.1-6.1C900.6,161.1,900.2,158.5,900.2,155.6z M907.3,155.6c0,2,0.3,3.8,0.9,5.4c0.6,1.6,1.5,3.1,2.6,4.3
				c1.1,1.2,2.5,2.2,4,2.8c1.5,0.7,3.2,1,5.1,1s3.6-0.3,5.1-1c1.6-0.7,2.9-1.6,4-2.8c1.1-1.2,2-2.6,2.6-4.3c0.6-1.6,0.9-3.5,0.9-5.4
				c0-1.9-0.3-3.7-0.9-5.3c-0.6-1.6-1.5-3-2.6-4.3c-1.1-1.2-2.4-2.2-4-2.9c-1.6-0.7-3.3-1-5.2-1c-1.9,0-3.6,0.3-5.2,1
				c-1.5,0.7-2.9,1.6-4,2.9c-1.1,1.2-2,2.6-2.6,4.3S907.3,153.7,907.3,155.6z"/>
			<path class="st3" d="M958.4,137.3h12.8c1.7,0,3.4,0.2,5,0.5c1.6,0.4,3.1,1,4.3,1.8c1.3,0.8,2.3,1.9,3,3.3c0.8,1.3,1.1,3,1.1,4.9
				c0,2.7-0.8,4.8-2.3,6.5c-1.5,1.7-3.6,2.8-6.1,3.4l9.8,16.3h-7.9l-8.5-15.6h-4.8v15.6h-6.5V137.3z M970.3,153.1
				c0.9,0,1.9-0.1,2.8-0.2c0.9-0.1,1.8-0.4,2.5-0.8c0.7-0.4,1.4-0.9,1.8-1.6s0.7-1.6,0.7-2.7c0-1-0.2-1.8-0.7-2.5
				c-0.4-0.6-1-1.1-1.7-1.5c-0.7-0.4-1.5-0.6-2.4-0.8c-0.9-0.1-1.7-0.2-2.6-0.2h-5.9v10.3H970.3z"/>
			<path class="st3" d="M1003.4,137.3h6.5v15.9h0.2l15.4-15.9h8.8l-17.2,17l18.3,19.8h-9.2l-16.1-18.4h-0.2v18.4h-6.5V137.3z"/>
			<path class="st3" d="M1070.3,145c-0.7-0.9-1.7-1.7-2.9-2.3c-1.3-0.6-2.5-0.9-3.8-0.9c-0.8,0-1.5,0.1-2.3,0.3s-1.5,0.5-2.1,0.9
				c-0.6,0.4-1.1,0.9-1.5,1.6c-0.4,0.6-0.6,1.4-0.6,2.3c0,0.8,0.2,1.5,0.5,2.1c0.3,0.6,0.8,1.1,1.4,1.5c0.6,0.4,1.3,0.8,2.2,1.1
				c0.9,0.3,1.8,0.6,2.9,0.9c1.2,0.4,2.4,0.8,3.7,1.3c1.3,0.5,2.4,1.1,3.5,1.9c1.1,0.8,1.9,1.8,2.6,3c0.7,1.2,1,2.7,1,4.5
				c0,2-0.4,3.7-1.1,5.2c-0.7,1.5-1.7,2.7-2.9,3.7c-1.2,1-2.6,1.7-4.3,2.2c-1.6,0.5-3.3,0.7-5.1,0.7c-2.4,0-4.7-0.4-7-1.3
				c-2.3-0.9-4.2-2.2-5.6-3.9l4.7-4.4c0.9,1.2,2.1,2.2,3.6,3s3,1.1,4.4,1.1c0.8,0,1.5-0.1,2.3-0.3c0.8-0.2,1.5-0.5,2.2-1
				c0.6-0.4,1.2-1,1.6-1.7c0.4-0.7,0.6-1.5,0.6-2.5c0-1-0.2-1.8-0.7-2.4c-0.5-0.6-1.1-1.2-1.8-1.7c-0.8-0.5-1.7-0.9-2.7-1.2
				c-1-0.3-2.1-0.7-3.3-1.1c-1.1-0.3-2.2-0.8-3.3-1.2s-2.1-1.1-3-1.9s-1.6-1.8-2.2-2.9c-0.6-1.2-0.8-2.6-0.8-4.3
				c0-1.9,0.4-3.5,1.2-4.8c0.8-1.3,1.8-2.5,3.1-3.3c1.3-0.9,2.7-1.5,4.3-2c1.6-0.4,3.2-0.6,4.9-0.6c1.9,0,3.8,0.3,5.7,1
				c1.9,0.7,3.6,1.6,5,3L1070.3,145z"/>
		</g>
		<g>
			<path class="st1" d="M427.2,84.2c-4.7,7.9-8.7,15.5-11.8,22.3c-0.6,1.4-2,1.4-2.8,0.3c-1.9-2.5-2.5-7.1,0.8-15.8
				c0.9-2.3,2.3-5.4,4.2-8.8c-3.4-1.9-4.7-4.2-5.1-5.3c-0.8-2-0.5-2.6,1.9-2.3c2.2,0.3,4.5,0.6,7,0.8c12.1-21.1,33.7-51.8,50.1-65.3
				c2.5-2,4-2,5.6,0.2c1.6,2.2,2,2.5,3.6,6.4c1.6,3.7,1.4,7.1,0,11.3c-4,12.3-8.4,28.1-11.3,45.1c4.7,1.6,6.4,4.7,7,7.9
				c0.3,1.4-0.3,1.9-1.7,1.4c-1.9-0.5-4-0.8-6.7-0.9c-1.1,8.1-2,16.6-2.3,24.8c0,1.6-0.9,2-2.3,1.4c-3.1-1.4-5.6-5.3-5.7-14.1
				c0-3.1,0.2-7.1,0.6-11.8C447,82.5,434.5,84.4,427.2,84.2z M459.3,72.3c2.3-16.1,6.7-35.7,11.5-47.8c-11.8,13.2-25.9,32-37.7,50.4
				C442.5,74.2,452,72.4,459.3,72.3z"/>
			<path class="st1" d="M500.5,107.8c-8.2,0-13.5-4.2-16.3-11c-1.4,3.3-3.1,7-4.5,10.2c-0.6,1.6-1.6,1.7-2.5,0.5
				c-2.3-3.1-3.9-7.6-0.8-17.1c4.2-12.9,34.6-70.3,45.3-85.2c1.4-2,2.6-2,3.9,0.2c2.3,4.3,2.3,11.3-4,23c-2.3,4.3-9,15-13.8,23.6
				c4.5-4,9.3-6.5,13.3-6.5c13.2,0,13.8,18.3,5.3,37.2C519.2,99,509.5,107.8,500.5,107.8z M507.5,58c-7,7.3-14.4,20.2-20.2,32.1
				c0.3,4.5,2.3,9.5,6.5,10.4c5.4,1.2,12.6-3.4,21.6-21.4c8.8-17.5,7-27,3.4-27.3C515.6,51.5,512.2,53.2,507.5,58z"/>
			<path class="st1" d="M553.9,104.1c12.9,0.6,24.2-11.8,30.9-22c0.8-1.2,2-1.2,2.6,0.2c0.6,1.2,0.2,5.6-2.6,9.6
				c-6.5,9.5-18.5,16.6-30.4,16.8c-19.7,0.3-26.5-19.1-16.4-39.1c10.1-20,25.9-28.1,33.7-23.6c3.9,2.3,6.7,4.7,9.2,8.1
				c2.8,3.7,1.6,13.2-5,21.1c-7.6,9.3-18,13.3-28.9,4.5C542,93.9,545.7,103.6,553.9,104.1z M566.8,68.4c5-6.5,8.4-14.6,6.2-16.3
				c-3.3-2.6-16.1,6.7-23.4,21.4c-0.5,0.9-0.9,1.9-1.2,2.6C555.9,81,562.3,74.3,566.8,68.4z"/>
			<path class="st1" d="M664.1,108.4c-11.8-0.6-16.4-11.2-12.6-23.7c3.3-10.4,12.6-21.9,19.2-29.3c-6.8,4.3-13.8,5.9-18.6,5.9
				c-12.9,27-29.6,46.5-48.1,46.9c-19.7,0.3-26.4-18.9-16.3-38.8c9.8-19.2,25.6-27.9,33.4-23.4c3.9,2.3,6.7,4.5,9.2,7.9
				c2.6,3.7,1.1,12.9-5.1,20.8c-7.3,9.5-17.7,13.3-28.5,4.7c-5,14.1-1.1,24.2,6.8,24.5c17.1,0.8,34.1-23.7,42.7-43.4
				c-11.9-5,3.3-25.6,9.8-25.9c4.8-0.2,3.3,9.3-0.6,19.4c5.4-0.8,10.9-3.3,16.9-7.3c1.9-1.2,3.3-2,4.3-0.5c3.1,3.4,7,10.9,2.3,16
				c-7.3,8.1-15.2,18.6-17.8,27c-2.6,8.5-0.8,14.7,3.9,14.9c6.5,0.3,14.4-9.9,19.4-21.4c0.6-1.2,1.7-1.6,2.3-0.2
				c0.8,1.7,1.1,5.7-0.8,10.1C681.9,101.8,672.6,108.9,664.1,108.4z M616.3,68.3c5-6.4,8.2-14.4,6.2-16.1
				c-3.4-2.9-16.1,6.8-23.3,21.1c-0.5,0.8-0.8,1.9-1.2,2.6C605.6,80.5,611.6,74.2,616.3,68.3z"/>
			<path class="st1" d="M734.2,84.2c-4.7,7.9-8.7,15.5-11.8,22.3c-0.6,1.4-2,1.4-2.8,0.3c-1.9-2.5-2.5-7.1,0.8-15.8
				c0.9-2.3,2.3-5.4,4.2-8.8c-3.4-1.9-4.7-4.2-5.1-5.3c-0.8-2-0.5-2.6,1.9-2.3c2.2,0.3,4.5,0.6,7,0.8c12.1-21.1,33.7-51.8,50.1-65.3
				c2.5-2,4-2,5.6,0.2c1.6,2.2,2,2.5,3.6,6.4c1.6,3.7,1.4,7.1,0,11.3c-4,12.3-8.4,28.1-11.3,45.1c4.7,1.6,6.4,4.7,7,7.9
				c0.3,1.4-0.3,1.9-1.7,1.4c-1.9-0.5-4-0.8-6.7-0.9c-1.1,8.1-2,16.6-2.3,24.8c0,1.6-0.9,2-2.3,1.4c-3.1-1.4-5.6-5.3-5.7-14.1
				c0-3.1,0.2-7.1,0.6-11.8C754.1,82.5,741.5,84.4,734.2,84.2z M766.3,72.3c2.3-16.1,6.7-35.7,11.5-47.8
				c-11.8,13.2-25.9,32-37.7,50.4C749.6,74.2,759,72.4,766.3,72.3z"/>
			<path class="st1" d="M799.4,103.8c7.4,0.6,18.3-10.5,24.4-22.5c1.1-2,2.8-2.2,3.4,0c0.8,2.5,0.2,5.9-1.6,9.6
				c-2.2,4.7-13.5,17.5-25.9,17.2c-10.7-0.3-16.4-7.8-12.9-24.5c5.7-27,23.4-55.1,39.3-71.5c2.3-2.5,4.5-2.8,6.7-0.8
				c4.5,4,5.4,9.8,3.6,17.1c-4.8,19.1-22.2,37.7-36,46.7C794.1,90.3,792.4,103.2,799.4,103.8z M831,25.1c-2-1.2-13.5,16-24.2,35.8
				c-1.4,2.5-2.6,5-3.7,7.4C824.3,51.2,833,26.4,831,25.1z"/>
			<path class="st1" d="M876.6,46.2c1.4-2,2.6-2.3,3.7-0.9c2.3,2.8,3.6,9.5-0.2,17.2c-3.4,7-11.2,18.6-14.9,26.8
				c-3.9,8.7-4,15.4,1.2,15c6.4-0.3,14.9-10.9,20.3-21.6c0.8-1.4,1.9-1.6,2.5-0.2c0.6,1.4,0.6,5.3-1.4,9.6
				c-4,8.5-13.8,17.1-22.3,16.6c-8.4-0.5-12.7-5.4-12.7-12.7c-5,6.4-11.9,12.1-19.4,12.1c-14.4,0-17.4-19.7-4.5-38.5
				c12.6-18.3,24.8-25.3,32.6-25.3c6.7,0,9.8,5.1,9.5,11.2C873.1,52,874.9,48.7,876.6,46.2z M864.2,52.6c-5-0.5-16.3,9.6-24.8,23.4
				c-8.2,13.3-10.2,27-4.2,27.2c6.4,0.2,14.4-9.8,22.3-23.4C867.3,62.7,868.7,53.1,864.2,52.6z"/>
			<path class="st1" d="M932.5,45.1c5.3,0.2,8.1,8.4,6.1,15.2c7.4-7.3,17.8-14.6,23-14.4c5.6,0.2,6.8,9.3,3.7,17.1
				c-2.8,7-10.4,17.2-14.3,25c-4.3,8.8-2.2,16,3.4,15.8c6.4-0.2,13.3-10.4,19.4-21.3c0.8-1.4,2-1.4,2.8-0.3c0.8,1.1,0.3,6.2-1.4,9.8
				c-4.3,8.8-14.3,16.6-23.3,16.6c-13.5,0-18.5-10.7-12.7-23.4c5.7-12.9,19.5-30.3,17.2-31c-1.2-0.5-6.5,1.2-16.6,11.3
				c-12.9,12.9-20.5,27.8-27,42.4c-0.9,1.9-2.2,2.3-3.6,0.8c-2.6-2.3-4.8-8.4-0.3-19.5c5.1-12.9,21.9-34.3,18.8-35.4
				c-1.9-0.8-9.5,3.4-19.4,14.3c-9.2,9.9-16.6,24.4-22.8,38.9c-0.6,1.4-1.6,2-2.9,0.8c-3.4-2.9-4.2-8.1-1.6-16
				c3.3-9.8,14.6-31.7,24.4-46.2c1.1-1.7,2.3-1.6,3.3,0c2.6,4.3,2.2,10.4-0.2,16.6C915.3,54.1,926.9,45,932.5,45.1z"/>
			<path class="st1" d="M1027.4,46.2c1.4-2,2.6-2.3,3.7-0.9c2.3,2.8,3.6,9.5-0.2,17.2c-3.4,7-11.2,18.6-14.9,26.8
				c-3.9,8.7-4,15.4,1.2,15c6.4-0.3,14.9-10.9,20.3-21.6c0.8-1.4,1.9-1.6,2.5-0.2c0.6,1.4,0.6,5.3-1.4,9.6
				c-4,8.5-13.8,17.1-22.3,16.6c-8.4-0.5-12.7-5.4-12.7-12.7c-5,6.4-11.9,12.1-19.4,12.1c-14.4,0-17.4-19.7-4.5-38.5
				c12.6-18.3,24.8-25.3,32.6-25.3c6.7,0,9.8,5.1,9.5,11.2C1023.9,52,1025.7,48.7,1027.4,46.2z M1015,52.6
				c-5-0.5-16.3,9.6-24.8,23.4c-8.2,13.3-10.2,27-4.2,27.2c6.4,0.2,14.4-9.8,22.3-23.4C1018.1,62.7,1019.5,53.1,1015,52.6z"/>
			<path class="st1" d="M1049,103.8c7.4,0.6,18.3-10.5,24.4-22.5c1.1-2,2.8-2.2,3.4,0c0.8,2.5,0.2,5.9-1.6,9.6
				c-2.2,4.7-13.5,17.5-25.9,17.2c-10.7-0.3-16.4-7.8-12.9-24.5c5.7-27,23.4-55.1,39.3-71.5c2.3-2.5,4.5-2.8,6.7-0.8
				c4.5,4,5.4,9.8,3.6,17.1c-4.8,19.1-22.2,37.7-36,46.7C1043.7,90.3,1042,103.2,1049,103.8z M1080.6,25.1c-2-1.2-13.5,16-24.2,35.8
				c-1.4,2.5-2.6,5-3.7,7.4C1074,51.2,1082.7,26.4,1080.6,25.1z"/>
		</g>
	</g>
</g>
</svg>
